<svg xmlns="http://www.w3.org/2000/svg" viewBox="0 0 800 500" preserveAspectRatio="xMidYMid slice">
  <defs>
    <linearGradient id="ga1" x1="0" y1="0" x2="1" y2="1">
      <stop offset="0" stop-color="#c026a0"></stop>
      <stop offset="1" stop-color="#ea580c"></stop>
    </linearGradient>
    <linearGradient id="ga2" x1="0" y1="1" x2="0" y2="0">
      <stop offset="0" stop-color="#c026a0" stop-opacity="0.05"></stop>
      <stop offset="1" stop-color="#c026a0" stop-opacity="0.4"></stop>
    </linearGradient>
    <pattern id="gridA" width="40" height="40" patternUnits="userSpaceOnUse">
      <path d="M 40 0 L 0 0 0 40" fill="none" stroke="rgba(192,38,160,0.05)" stroke-width="1"></path>
    </pattern>
  </defs>
  <rect width="800" height="500" fill="#0d1320"></rect>
  <rect width="800" height="500" fill="url(#gridA)"></rect>

  
  <rect x="32" y="28" width="280" height="14" rx="2" fill="#e2e8f0" opacity="0.9"></rect>
  <rect x="32" y="50" width="160" height="8" rx="2" fill="#94a3b8" opacity="0.5"></rect>

  
  <g font-family="monospace" font-size="10" letter-spacing="2">
    <rect x="500" y="32" width="80" height="22" rx="2" fill="#111827" stroke="#c026a0"></rect>
    <text x="540" y="47" text-anchor="middle" fill="#c026a0">FINANCEIRO</text>
    <text x="600" y="47" fill="#475569">COMERCIAL</text>
    <text x="690" y="47" fill="#475569">RATEIO</text>
  </g>

  
  <g transform="translate(32, 88)">
    <rect width="220" height="180" rx="3" fill="#111827" stroke="rgba(192,38,160,0.18)"></rect>
    <text x="16" y="26" font-family="monospace" font-size="9" fill="#94a3b8" letter-spacing="1.5">COMPOSICAO DE CUSTOS</text>
    
    <g transform="translate(110, 110)">
      <circle r="50" fill="none" stroke="#1a2235" stroke-width="14"></circle>
      <circle r="50" fill="none" stroke="#c026a0" stroke-width="14" stroke-dasharray="125 314" transform="rotate(-90)"></circle>
      <circle r="50" fill="none" stroke="#ea580c" stroke-width="14" stroke-dasharray="80 314" stroke-dashoffset="-125" transform="rotate(-90)"></circle>
      <circle r="50" fill="none" stroke="#7c3aed" stroke-width="14" stroke-dasharray="55 314" stroke-dashoffset="-205" transform="rotate(-90)"></circle>
      <text text-anchor="middle" y="2" font-family="&#39;Syne&#39;, sans-serif" font-weight="800" font-size="22" fill="#e2e8f0">XX%</text>
      <text text-anchor="middle" y="18" font-family="monospace" font-size="7" fill="#94a3b8" letter-spacing="1">RATEIO</text>
    </g>
  </g>

  <g transform="translate(266, 88)">
    <rect width="138" height="86" rx="3" fill="#111827" stroke="rgba(192,38,160,0.15)"></rect>
    <text x="14" y="22" font-family="monospace" font-size="8" fill="#94a3b8" letter-spacing="1.5">RECEITA TOTAL</text>
    <text x="14" y="50" font-family="&#39;Syne&#39;, sans-serif" font-weight="800" font-size="22" fill="#e2e8f0">R$ XX.X</text>
    <text x="14" y="68" font-family="monospace" font-size="9" fill="#c026a0">▲ 18.2%</text>
  </g>
  <g transform="translate(418, 88)">
    <rect width="138" height="86" rx="3" fill="#111827" stroke="rgba(192,38,160,0.15)"></rect>
    <text x="14" y="22" font-family="monospace" font-size="8" fill="#94a3b8" letter-spacing="1.5">DESPESA OP</text>
    <text x="14" y="50" font-family="&#39;Syne&#39;, sans-serif" font-weight="800" font-size="22" fill="#e2e8f0">R$ X.XX</text>
    <text x="14" y="68" font-family="monospace" font-size="9" fill="#ea580c">▼ 4.6%</text>
  </g>
  <g transform="translate(570, 88)">
    <rect width="198" height="86" rx="3" fill="#111827" stroke="rgba(192,38,160,0.3)"></rect>
    <text x="14" y="22" font-family="monospace" font-size="8" fill="#94a3b8" letter-spacing="1.5">MARGEM</text>
    <text x="14" y="50" font-family="&#39;Syne&#39;, sans-serif" font-weight="800" font-size="22" fill="url(#ga1)">XX.X %</text>
    <rect x="14" y="62" width="170" height="6" rx="3" fill="#0d1320"></rect>
    <rect x="14" y="62" width="118" height="6" rx="3" fill="url(#ga1)"></rect>
  </g>

  
  <g transform="translate(266, 184)">
    <rect width="290" height="84" rx="3" fill="#111827" stroke="rgba(192,38,160,0.15)"></rect>
    <text x="14" y="22" font-family="monospace" font-size="8" fill="#94a3b8" letter-spacing="1.5">PDFs PROCESSADOS</text>
    <text x="14" y="50" font-family="&#39;Syne&#39;, sans-serif" font-weight="800" font-size="22" fill="#e2e8f0">X.XXX <tspan font-size="11" fill="#94a3b8">arquivos</tspan></text>
    <text x="14" y="68" font-family="monospace" font-size="8" fill="#c026a0">pdfplumber · automacao 24/7</text>
  </g>
  <g transform="translate(570, 184)">
    <rect width="198" height="84" rx="3" fill="#111827" stroke="rgba(192,38,160,0.15)"></rect>
    <text x="14" y="22" font-family="monospace" font-size="8" fill="#94a3b8" letter-spacing="1.5">CONCILIACAO</text>
    <text x="14" y="50" font-family="&#39;Syne&#39;, sans-serif" font-weight="800" font-size="22" fill="#e2e8f0">100%</text>
    <text x="14" y="68" font-family="monospace" font-size="8" fill="#94a3b8">linhas com origem</text>
  </g>

  
  <g transform="translate(32, 282)">
    <rect width="736" height="186" rx="3" fill="#111827" stroke="rgba(192,38,160,0.12)"></rect>
    <text x="20" y="26" font-family="monospace" font-size="9" fill="#94a3b8" letter-spacing="1.5">FLUXO MENSAL · 24M</text>
    
    <g stroke="rgba(192,38,160,0.06)" stroke-dasharray="2,3">
      <line x1="40" y1="158" x2="720" y2="158"></line>
      <line x1="40" y1="120" x2="720" y2="120"></line>
      <line x1="40" y1="82" x2="720" y2="82"></line>
      <line x1="40" y1="44" x2="720" y2="44"></line>
    </g>
    <line x1="40" y1="158" x2="720" y2="158" stroke="rgba(192,38,160,0.15)"></line>
    
    <path d="M 40 130 L 90 122 L 140 135 L 190 110 L 240 95 L 290 105 L 340 88 L 390 70 L 440 78 L 490 60 L 540 50 L 590 65 L 640 55 L 690 42 L 720 50 L 720 158 L 40 158 Z" fill="url(#ga2)"></path>
    <path d="M 40 130 L 90 122 L 140 135 L 190 110 L 240 95 L 290 105 L 340 88 L 390 70 L 440 78 L 490 60 L 540 50 L 590 65 L 640 55 L 690 42 L 720 50" fill="none" stroke="#c026a0" stroke-width="2"></path>
    
    <path d="M 40 145 L 90 142 L 140 148 L 190 135 L 240 128 L 290 132 L 340 122 L 390 115 L 440 118 L 490 108 L 540 100 L 590 105 L 640 98 L 690 92 L 720 95" fill="none" stroke="#ea580c" stroke-width="1.5" stroke-dasharray="4,3"></path>
  </g>
</svg>