<svg xmlns="http://www.w3.org/2000/svg" viewBox="0 0 800 500" preserveAspectRatio="xMidYMid slice">
  <defs>
    <linearGradient id="g1" x1="0" y1="0" x2="1" y2="1">
      <stop offset="0" stop-color="#7c3aed"></stop>
      <stop offset="0.5" stop-color="#c026a0"></stop>
      <stop offset="1" stop-color="#00d4c8"></stop>
    </linearGradient>
    <linearGradient id="g2" x1="0" y1="1" x2="0" y2="0">
      <stop offset="0" stop-color="#00d4c8" stop-opacity="0.05"></stop>
      <stop offset="1" stop-color="#00d4c8" stop-opacity="0.55"></stop>
    </linearGradient>
    <pattern id="grid" width="40" height="40" patternUnits="userSpaceOnUse">
      <path d="M 40 0 L 0 0 0 40" fill="none" stroke="rgba(0,212,200,0.05)" stroke-width="1"></path>
    </pattern>
  </defs>
  <rect width="800" height="500" fill="#0d1320"></rect>
  <rect width="800" height="500" fill="url(#grid)"></rect>

  
  <rect x="32" y="28" width="220" height="14" rx="2" fill="#e2e8f0" opacity="0.9"></rect>
  <rect x="32" y="50" width="120" height="8" rx="2" fill="#94a3b8" opacity="0.5"></rect>

  
  <circle cx="740" cy="40" r="8" fill="none" stroke="#00d4c8" stroke-width="1.5"></circle>
  <circle cx="740" cy="40" r="3" fill="#00d4c8"></circle>
  <text x="700" y="44" text-anchor="end" font-family="monospace" font-size="10" fill="#475569" letter-spacing="2">2024 · TENANT A</text>

  
  <g transform="translate(32, 90)">
    <rect width="170" height="78" rx="3" fill="#111827" stroke="rgba(0,212,200,0.15)"></rect>
    <text x="14" y="22" font-family="monospace" font-size="9" fill="#94a3b8" letter-spacing="1.5">RECEITA · MES</text>
    <text x="14" y="52" font-family="&#39;Syne&#39;, sans-serif" font-weight="800" font-size="26" fill="#e2e8f0">R$ XX.X</text>
    <text x="14" y="68" font-family="monospace" font-size="9" fill="#00d4c8">▲ 12.4%</text>
  </g>
  <g transform="translate(216, 90)">
    <rect width="170" height="78" rx="3" fill="#111827" stroke="rgba(0,212,200,0.15)"></rect>
    <text x="14" y="22" font-family="monospace" font-size="9" fill="#94a3b8" letter-spacing="1.5">REGISTROS</text>
    <text x="14" y="52" font-family="&#39;Syne&#39;, sans-serif" font-weight="800" font-size="26" fill="#e2e8f0">XX.X K</text>
    <text x="14" y="68" font-family="monospace" font-size="9" fill="#c026a0">▼ 3.1%</text>
  </g>
  <g transform="translate(400, 90)">
    <rect width="170" height="78" rx="3" fill="#111827" stroke="rgba(0,212,200,0.15)"></rect>
    <text x="14" y="22" font-family="monospace" font-size="9" fill="#94a3b8" letter-spacing="1.5">TKT MEDIO</text>
    <text x="14" y="52" font-family="&#39;Syne&#39;, sans-serif" font-weight="800" font-size="26" fill="#e2e8f0">R$ XXX</text>
    <text x="14" y="68" font-family="monospace" font-size="9" fill="#00d4c8">▲ 5.8%</text>
  </g>
  <g transform="translate(584, 90)">
    <rect width="184" height="78" rx="3" fill="#111827" stroke="rgba(0,212,200,0.25)"></rect>
    <text x="14" y="22" font-family="monospace" font-size="9" fill="#94a3b8" letter-spacing="1.5">META · TRIM</text>
    <text x="14" y="52" font-family="&#39;Syne&#39;, sans-serif" font-weight="800" font-size="26" fill="url(#g1)">78%</text>
    <rect x="14" y="60" width="156" height="6" rx="3" fill="#0d1320"></rect>
    <rect x="14" y="60" width="122" height="6" rx="3" fill="url(#g1)"></rect>
  </g>

  
  <g transform="translate(32, 192)">
    <rect width="448" height="270" rx="3" fill="#111827" stroke="rgba(0,212,200,0.12)"></rect>
    <text x="20" y="28" font-family="monospace" font-size="9" fill="#94a3b8" letter-spacing="1.5">RECEITA MENSAL · 12M</text>
    
    <line x1="40" y1="240" x2="430" y2="240" stroke="rgba(0,212,200,0.1)"></line>
    <line x1="40" y1="200" x2="430" y2="200" stroke="rgba(0,212,200,0.05)" stroke-dasharray="2,3"></line>
    <line x1="40" y1="160" x2="430" y2="160" stroke="rgba(0,212,200,0.05)" stroke-dasharray="2,3"></line>
    <line x1="40" y1="120" x2="430" y2="120" stroke="rgba(0,212,200,0.05)" stroke-dasharray="2,3"></line>
    
    <path d="M 40 210 L 80 195 L 120 180 L 160 200 L 200 170 L 240 140 L 280 155 L 320 125 L 360 110 L 400 95 L 430 105 L 430 240 L 40 240 Z" fill="url(#g2)"></path>
    <path d="M 40 210 L 80 195 L 120 180 L 160 200 L 200 170 L 240 140 L 280 155 L 320 125 L 360 110 L 400 95 L 430 105" fill="none" stroke="#00d4c8" stroke-width="2"></path>
    
    <g fill="#00d4c8">
      <circle cx="80" cy="195" r="2.5"></circle><circle cx="160" cy="200" r="2.5"></circle>
      <circle cx="240" cy="140" r="2.5"></circle><circle cx="320" cy="125" r="2.5"></circle>
      <circle cx="400" cy="95" r="3.5" fill="#c026a0"></circle>
    </g>
  </g>

  
  <g transform="translate(496, 192)">
    <rect width="272" height="270" rx="3" fill="#111827" stroke="rgba(0,212,200,0.12)"></rect>
    <text x="16" y="28" font-family="monospace" font-size="9" fill="#94a3b8" letter-spacing="1.5">TOP CATEGORIAS</text>
    <g font-family="monospace" font-size="8" fill="#94a3b8">
      <text x="16" y="65">Cat A</text>
      <text x="16" y="98">Cat B</text>
      <text x="16" y="131">Cat C</text>
      <text x="16" y="164">Cat D</text>
      <text x="16" y="197">Cat E</text>
      <text x="16" y="230">Cat F</text>
    </g>
    <rect x="64" y="56" width="190" height="14" fill="url(#g1)" rx="2"></rect>
    <rect x="64" y="89" width="160" height="14" fill="#00d4c8" opacity="0.75" rx="2"></rect>
    <rect x="64" y="122" width="130" height="14" fill="#00d4c8" opacity="0.6" rx="2"></rect>
    <rect x="64" y="155" width="105" height="14" fill="#00d4c8" opacity="0.45" rx="2"></rect>
    <rect x="64" y="188" width="76" height="14" fill="#00d4c8" opacity="0.3" rx="2"></rect>
    <rect x="64" y="221" width="48" height="14" fill="#00d4c8" opacity="0.2" rx="2"></rect>
  </g>
</svg>