<svg xmlns="http://www.w3.org/2000/svg" viewBox="0 0 500 640" preserveAspectRatio="xMidYMid slice">
  <defs>
    <radialGradient id="bgGlow" cx="50%" cy="35%" r="60%">
      <stop offset="0%" stop-color="#7c3aed" stop-opacity="0.65"></stop>
      <stop offset="55%" stop-color="#c026a0" stop-opacity="0.35"></stop>
      <stop offset="100%" stop-color="#080c14" stop-opacity="1"></stop>
    </radialGradient>
    <radialGradient id="cyanGlow" cx="80%" cy="80%" r="50%">
      <stop offset="0%" stop-color="#00d4c8" stop-opacity="0.55"></stop>
      <stop offset="100%" stop-color="#00d4c8" stop-opacity="0"></stop>
    </radialGradient>
    <linearGradient id="silhouette" x1="0" y1="0" x2="0" y2="1">
      <stop offset="0" stop-color="#0d1320"></stop>
      <stop offset="1" stop-color="#080c14"></stop>
    </linearGradient>
    <linearGradient id="rim" x1="0" y1="0" x2="1" y2="1">
      <stop offset="0" stop-color="#7c3aed"></stop>
      <stop offset="0.5" stop-color="#c026a0"></stop>
      <stop offset="1" stop-color="#00d4c8"></stop>
    </linearGradient>
    <filter id="grain">
      <feTurbulence baseFrequency="0.9" numOctaves="2" seed="3"></feTurbulence>
      <feColorMatrix values="0 0 0 0 0&#xA;                             0 0 0 0 0&#xA;                             0 0 0 0 0&#xA;                             0 0 0 0.06 0"></feColorMatrix>
      <feComposite in2="SourceGraphic" operator="in"></feComposite>
    </filter>
    <filter id="soft" x="-20%" y="-20%" width="140%" height="140%">
      <feGaussianBlur stdDeviation="2"></feGaussianBlur>
    </filter>
  </defs>

  
  <rect width="500" height="640" fill="#080c14"></rect>
  <rect width="500" height="640" fill="url(#bgGlow)"></rect>
  <rect width="500" height="640" fill="url(#cyanGlow)"></rect>

  
  <g stroke="rgba(0,212,200,0.06)" stroke-width="1">
    <line x1="0" y1="120" x2="500" y2="120"></line>
    <line x1="0" y1="280" x2="500" y2="280"></line>
    <line x1="0" y1="440" x2="500" y2="440"></line>
    <line x1="125" y1="0" x2="125" y2="640"></line>
    <line x1="375" y1="0" x2="375" y2="640"></line>
  </g>

  
  <g transform="translate(250, 0)">
    
    <path d="M -200 640 Q -200 480 -110 440 Q -60 425 -45 410 L -45 385 L 45 385 L 45 410 Q 60 425 110 440 Q 200 480 200 640 Z" fill="url(#silhouette)"></path>
    
    <rect x="-30" y="350" width="60" height="60" fill="url(#silhouette)"></rect>
    
    <ellipse cx="0" cy="260" rx="90" ry="110" fill="url(#silhouette)"></ellipse>
    
    <path d="M -95 260 Q -110 200 -88 160 Q -50 130 0 132 Q 50 130 88 160 Q 110 200 95 260 Q 100 320 90 400 L 70 380 Q 60 320 60 280 L -60 280 Q -60 320 -70 380 L -90 400 Q -100 320 -95 260 Z" fill="#080c14"></path>

    
    <path d="M -95 260 Q -110 200 -88 160 Q -50 130 0 132" fill="none" stroke="#00d4c8" stroke-width="2" opacity="0.8" filter="url(#soft)"></path>
    
    <path d="M 0 132 Q 50 130 88 160 Q 110 200 95 260" fill="none" stroke="#c026a0" stroke-width="2.5" opacity="0.9" filter="url(#soft)"></path>
    
    <path d="M -30 350 L -30 410" stroke="#7c3aed" stroke-width="1.5" opacity="0.7" filter="url(#soft)"></path>
    <path d="M 30 350 L 30 410" stroke="#00d4c8" stroke-width="1.5" opacity="0.7" filter="url(#soft)"></path>
    
    <path d="M -45 410 Q -60 425 -110 440 Q -180 470 -200 540" fill="none" stroke="#c026a0" stroke-width="1.2" opacity="0.5" filter="url(#soft)"></path>
    <path d="M 45 410 Q 60 425 110 440 Q 180 470 200 540" fill="none" stroke="#00d4c8" stroke-width="1.2" opacity="0.5" filter="url(#soft)"></path>
  </g>

  
  <g transform="translate(28, 32)" font-family="&#39;Space Mono&#39;, monospace" font-size="9" letter-spacing="2" fill="#94a3b8">
    <text>MARCELA SILVA</text>
    <text y="14">//  ANALYST.PORTRAIT</text>
  </g>
  <g transform="translate(472, 32)" font-family="&#39;Space Mono&#39;, monospace" font-size="9" letter-spacing="2" fill="#00d4c8" text-anchor="end">
    <text>2026</text>
  </g>

  
  <g transform="translate(60, 590)" stroke="#00d4c8" stroke-width="1" opacity="0.7" fill="none">
    <line x1="-8" y1="0" x2="8" y2="0"></line>
    <line x1="0" y1="-8" x2="0" y2="8"></line>
    <circle r="14" stroke-opacity="0.4"></circle>
  </g>
  <g transform="translate(440, 100)" stroke="#c026a0" stroke-width="1" opacity="0.8" fill="none">
    <line x1="-6" y1="0" x2="6" y2="0"></line>
    <line x1="0" y1="-6" x2="0" y2="6"></line>
  </g>

  
  <rect width="500" height="640" filter="url(#grain)" opacity="0.6"></rect>
</svg>