<svg xmlns="http://www.w3.org/2000/svg" viewBox="0 0 800 500" preserveAspectRatio="xMidYMid slice">
  <defs>
    <linearGradient id="gp1" x1="0" y1="0" x2="1" y2="0">
      <stop offset="0" stop-color="#7c3aed"></stop>
      <stop offset="1" stop-color="#00d4c8"></stop>
    </linearGradient>
    <linearGradient id="gp2" x1="0" y1="0" x2="0" y2="1">
      <stop offset="0" stop-color="#d97706"></stop>
      <stop offset="1" stop-color="#ea580c"></stop>
    </linearGradient>
    <pattern id="gridP" width="40" height="40" patternUnits="userSpaceOnUse">
      <path d="M 40 0 L 0 0 0 40" fill="none" stroke="rgba(124,58,237,0.05)" stroke-width="1"></path>
    </pattern>
  </defs>
  <rect width="800" height="500" fill="#0d1320"></rect>
  <rect width="800" height="500" fill="url(#gridP)"></rect>

  
  <rect x="0" y="0" width="180" height="500" fill="#080c14"></rect>
  <line x1="180" y1="0" x2="180" y2="500" stroke="rgba(124,58,237,0.18)"></line>

  <g transform="translate(24, 32)">
    <rect width="22" height="22" rx="3" fill="url(#gp1)"></rect>
    <text x="32" y="16" font-family="&#39;Syne&#39;, sans-serif" font-weight="700" font-size="13" fill="#e2e8f0">Performance</text>
    <text x="32" y="30" font-family="monospace" font-size="8" fill="#475569" letter-spacing="1.5">HUB · v2.1</text>
  </g>

  <g font-family="monospace" font-size="9" letter-spacing="1.5" transform="translate(24, 90)">
    <rect x="-10" y="-10" width="160" height="28" rx="3" fill="rgba(0,212,200,0.08)"></rect>
    <text fill="#00d4c8">▸  RANKING</text>
    <text y="42" fill="#475569">   FECHAMENTOS</text>
    <text y="74" fill="#475569">   AUDITORIA</text>
    <text y="106" fill="#475569">   METAS</text>
    <text y="138" fill="#475569">   CONFIGURACAO</text>
  </g>

  
  <text x="208" y="48" font-family="&#39;Syne&#39;, sans-serif" font-weight="700" font-size="20" fill="#e2e8f0">Ranking · Operação</text>
  <text x="208" y="68" font-family="monospace" font-size="9" fill="#94a3b8" letter-spacing="1.5">CICLO 03 · 100+ CONSULTORES</text>

  
  <rect x="556" y="32" width="220" height="32" rx="2" fill="#111827" stroke="rgba(0,212,200,0.15)"></rect>
  <text x="572" y="52" font-family="monospace" font-size="10" fill="#475569">buscar consultor...</text>

  
  <g transform="translate(208, 92)">
    <rect width="180" height="64" rx="3" fill="#111827" stroke="rgba(0,212,200,0.18)"></rect>
    <text x="14" y="22" font-family="monospace" font-size="8" fill="#94a3b8" letter-spacing="1.5">TEMPO FECHAMENTO</text>
    <text x="14" y="48" font-family="&#39;Syne&#39;, sans-serif" font-weight="800" font-size="20" fill="url(#gp1)">2.4 s</text>
  </g>
  <g transform="translate(404, 92)">
    <rect width="180" height="64" rx="3" fill="#111827" stroke="rgba(0,212,200,0.15)"></rect>
    <text x="14" y="22" font-family="monospace" font-size="8" fill="#94a3b8" letter-spacing="1.5">ATIVOS · 24H</text>
    <text x="14" y="48" font-family="&#39;Syne&#39;, sans-serif" font-weight="800" font-size="20" fill="#e2e8f0">XXX <tspan font-size="11" fill="#94a3b8">/ XXX</tspan></text>
  </g>
  <g transform="translate(600, 92)">
    <rect width="180" height="64" rx="3" fill="#111827" stroke="rgba(0,212,200,0.15)"></rect>
    <text x="14" y="22" font-family="monospace" font-size="8" fill="#94a3b8" letter-spacing="1.5">META · MEDIA</text>
    <text x="14" y="48" font-family="&#39;Syne&#39;, sans-serif" font-weight="800" font-size="20" fill="#e2e8f0">82.5 %</text>
  </g>

  
  <g transform="translate(208, 178)">
    <rect width="572" height="290" rx="3" fill="#111827" stroke="rgba(0,212,200,0.12)"></rect>
    
    <g font-family="monospace" font-size="8" fill="#475569" letter-spacing="1.5">
      <text x="20" y="26">POS</text>
      <text x="60" y="26">CONSULTOR</text>
      <text x="280" y="26">SCORE</text>
      <text x="370" y="26">META</text>
      <text x="460" y="26">STREAK</text>
    </g>
    <line x1="14" y1="36" x2="558" y2="36" stroke="rgba(0,212,200,0.1)"></line>

    
    <g font-family="monospace" font-size="11">
      
      <g transform="translate(0, 56)">
        <rect x="14" y="-14" width="544" height="36" rx="2" fill="rgba(124,58,237,0.08)"></rect>
        <text x="20" y="6" fill="url(#gp1)" font-family="&#39;Syne&#39;, sans-serif" font-weight="800" font-size="16">01</text>
        <circle cx="68" cy="0" r="10" fill="#7c3aed"></circle>
        <text x="86" y="5" fill="#e2e8f0">XXXX X.</text>
        <text x="280" y="5" fill="#00d4c8">9.847</text>
        <rect x="370" y="-4" width="80" height="8" rx="4" fill="#0d1320"></rect>
        <rect x="370" y="-4" width="76" height="8" rx="4" fill="url(#gp1)"></rect>
        <text x="460" y="5" fill="#d97706">▲ 14d</text>
      </g>
      <g transform="translate(0, 96)">
        <text x="20" y="6" fill="#e2e8f0" font-family="&#39;Syne&#39;, sans-serif" font-weight="800" font-size="16">02</text>
        <circle cx="68" cy="0" r="10" fill="#c026a0"></circle>
        <text x="86" y="5" fill="#e2e8f0">XXXX X.</text>
        <text x="280" y="5" fill="#e2e8f0">9.612</text>
        <rect x="370" y="-4" width="80" height="8" rx="4" fill="#0d1320"></rect>
        <rect x="370" y="-4" width="71" height="8" rx="4" fill="#c026a0"></rect>
        <text x="460" y="5" fill="#94a3b8">▲ 9d</text>
      </g>
      <g transform="translate(0, 136)">
        <text x="20" y="6" fill="#e2e8f0" font-family="&#39;Syne&#39;, sans-serif" font-weight="800" font-size="16">03</text>
        <circle cx="68" cy="0" r="10" fill="#ea580c"></circle>
        <text x="86" y="5" fill="#e2e8f0">XXXX X.</text>
        <text x="280" y="5" fill="#e2e8f0">9.401</text>
        <rect x="370" y="-4" width="80" height="8" rx="4" fill="#0d1320"></rect>
        <rect x="370" y="-4" width="68" height="8" rx="4" fill="#ea580c"></rect>
        <text x="460" y="5" fill="#94a3b8">▲ 6d</text>
      </g>
      <g transform="translate(0, 176)">
        <text x="20" y="6" fill="#94a3b8" font-family="&#39;Syne&#39;, sans-serif" font-weight="700" font-size="14">04</text>
        <circle cx="68" cy="0" r="10" fill="#475569"></circle>
        <text x="86" y="5" fill="#94a3b8">XXXX X.</text>
        <text x="280" y="5" fill="#94a3b8">9.288</text>
        <rect x="370" y="-4" width="80" height="8" rx="4" fill="#0d1320"></rect>
        <rect x="370" y="-4" width="62" height="8" rx="4" fill="#475569"></rect>
        <text x="460" y="5" fill="#94a3b8">▲ 3d</text>
      </g>
      <g transform="translate(0, 216)">
        <text x="20" y="6" fill="#94a3b8" font-family="&#39;Syne&#39;, sans-serif" font-weight="700" font-size="14">05</text>
        <circle cx="68" cy="0" r="10" fill="#475569"></circle>
        <text x="86" y="5" fill="#94a3b8">XXXX X.</text>
        <text x="280" y="5" fill="#94a3b8">9.102</text>
        <rect x="370" y="-4" width="80" height="8" rx="4" fill="#0d1320"></rect>
        <rect x="370" y="-4" width="58" height="8" rx="4" fill="#475569"></rect>
        <text x="460" y="5" fill="#94a3b8">— 0d</text>
      </g>
      <g transform="translate(0, 256)">
        <text x="20" y="6" fill="#475569" font-family="monospace" font-size="11">...</text>
      </g>
    </g>
  </g>
</svg>